<svg xmlns="http://www.w3.org/2000/svg" viewBox="0 0 1280 320" width="1280" height="320">
  <defs>
    <linearGradient id="bg" x1="0" y1="0" x2="1" y2="1">
      <stop offset="0%" stop-color="#0a0a0c"/>
      <stop offset="100%" stop-color="#12141a"/>
    </linearGradient>
    <linearGradient id="gold" x1="0" y1="0" x2="1" y2="0">
      <stop offset="0%" stop-color="#d4a437"/>
      <stop offset="50%" stop-color="#f5d97a"/>
      <stop offset="100%" stop-color="#d4a437"/>
    </linearGradient>
  </defs>
  <rect width="1280" height="320" fill="url(#bg)"/>
  <g stroke="#1e2430" stroke-width="1" fill="none">
    <line x1="0" y1="0" x2="0" y2="320"/>
    <line x1="40" y1="0" x2="40" y2="320"/>
    <line x1="80" y1="0" x2="80" y2="320"/>
    <line x1="120" y1="0" x2="120" y2="320"/>
    <line x1="160" y1="0" x2="160" y2="320"/>
    <line x1="200" y1="0" x2="200" y2="320"/>
    <line x1="240" y1="0" x2="240" y2="320"/>
    <line x1="280" y1="0" x2="280" y2="320"/>
    <line x1="320" y1="0" x2="320" y2="320"/>
    <line x1="360" y1="0" x2="360" y2="320"/>
    <line x1="400" y1="0" x2="400" y2="320"/>
    <line x1="440" y1="0" x2="440" y2="320"/>
    <line x1="480" y1="0" x2="480" y2="320"/>
    <line x1="520" y1="0" x2="520" y2="320"/>
    <line x1="560" y1="0" x2="560" y2="320"/>
    <line x1="600" y1="0" x2="600" y2="320"/>
    <line x1="640" y1="0" x2="640" y2="320"/>
    <line x1="680" y1="0" x2="680" y2="320"/>
    <line x1="720" y1="0" x2="720" y2="320"/>
    <line x1="760" y1="0" x2="760" y2="320"/>
    <line x1="800" y1="0" x2="800" y2="320"/>
    <line x1="840" y1="0" x2="840" y2="320"/>
    <line x1="880" y1="0" x2="880" y2="320"/>
    <line x1="920" y1="0" x2="920" y2="320"/>
    <line x1="960" y1="0" x2="960" y2="320"/>
    <line x1="1000" y1="0" x2="1000" y2="320"/>
    <line x1="1040" y1="0" x2="1040" y2="320"/>
    <line x1="1080" y1="0" x2="1080" y2="320"/>
    <line x1="1120" y1="0" x2="1120" y2="320"/>
    <line x1="1160" y1="0" x2="1160" y2="320"/>
    <line x1="1200" y1="0" x2="1200" y2="320"/>
    <line x1="1240" y1="0" x2="1240" y2="320"/>
    <line x1="1280" y1="0" x2="1280" y2="320"/>
    <line x1="0" y1="0" x2="1280" y2="0"/>
    <line x1="0" y1="40" x2="1280" y2="40"/>
    <line x1="0" y1="80" x2="1280" y2="80"/>
    <line x1="0" y1="120" x2="1280" y2="120"/>
    <line x1="0" y1="160" x2="1280" y2="160"/>
    <line x1="0" y1="200" x2="1280" y2="200"/>
    <line x1="0" y1="240" x2="1280" y2="240"/>
    <line x1="0" y1="280" x2="1280" y2="280"/>
    <line x1="0" y1="320" x2="1280" y2="320"/>
  </g>
  <polyline points="0,60 240,60 300,120 520,120" fill="none" stroke="#d4a437" stroke-opacity="0.35" stroke-width="2.5" stroke-linejoin="round"/>
  <polyline points="1280,250 1040,250 980,190 760,190" fill="none" stroke="#d4a437" stroke-opacity="0.35" stroke-width="2.5" stroke-linejoin="round"/>
  <polyline points="0,260 180,260 220,220 420,220" fill="none" stroke="#d4a437" stroke-opacity="0.35" stroke-width="2.5" stroke-linejoin="round"/>
  <polyline points="1280,70 1100,70 1060,110 900,110" fill="none" stroke="#d4a437" stroke-opacity="0.35" stroke-width="2.5" stroke-linejoin="round"/>
  <circle cx="240" cy="60" r="6" fill="none" stroke="#d4a437" stroke-opacity="0.6" stroke-width="2.5"/>
  <circle cx="520" cy="120" r="6" fill="none" stroke="#d4a437" stroke-opacity="0.6" stroke-width="2.5"/>
  <circle cx="1040" cy="250" r="6" fill="none" stroke="#d4a437" stroke-opacity="0.6" stroke-width="2.5"/>
  <circle cx="760" cy="190" r="6" fill="none" stroke="#d4a437" stroke-opacity="0.6" stroke-width="2.5"/>
  <circle cx="180" cy="260" r="6" fill="none" stroke="#d4a437" stroke-opacity="0.6" stroke-width="2.5"/>
  <circle cx="420" cy="220" r="6" fill="none" stroke="#d4a437" stroke-opacity="0.6" stroke-width="2.5"/>
  <circle cx="1100" cy="70" r="6" fill="none" stroke="#d4a437" stroke-opacity="0.6" stroke-width="2.5"/>
  <circle cx="900" cy="110" r="6" fill="none" stroke="#d4a437" stroke-opacity="0.6" stroke-width="2.5"/>
  <text x="640" y="150" text-anchor="middle" font-family="Arial Black, Impact, sans-serif" font-size="72" font-weight="900" fill="url(#gold)" letter-spacing="4">BFU ELECTRONICS</text>
  <text x="640" y="196" text-anchor="middle" font-family="Arial, sans-serif" font-size="24" fill="#8b93a7" letter-spacing="6">KiCad Footprint Library</text>
  <line x1="440" y1="222" x2="840" y2="222" stroke="#d4a437" stroke-opacity="0.5" stroke-width="1.5"/>
  <text x="640" y="256" text-anchor="middle" font-family="Arial, sans-serif" font-size="18" fill="#6b7280" letter-spacing="3">BRAIN FROM UKRAINE</text>
</svg>
